<mxfile host="Electron" modified="2024-02-26T19:03:50.322Z" agent="Mozilla/5.0 (Windows NT 10.0; Win64; x64) AppleWebKit/537.36 (KHTML, like Gecko) draw.io/22.1.2 Chrome/114.0.5735.289 Electron/25.9.4 Safari/537.36" etag="i4gDL7J_fhYvsTuPrUbw" version="22.1.2" type="device">
  <diagram name="Page-1" id="nQ2GkJ5ZrJYN5mOkquim">
    <mxGraphModel dx="864" dy="1685" grid="1" gridSize="10" guides="1" tooltips="1" connect="1" arrows="1" fold="1" page="1" pageScale="1" pageWidth="827" pageHeight="1169" math="0" shadow="0">
      <root>
        <mxCell id="0" />
        <mxCell id="1" parent="0" />
        <mxCell id="NH2dRyDyR3QYcFUQU_aB-2" value="&lt;b&gt;&lt;u&gt;&lt;font style=&quot;font-size: 14px;&quot;&gt;AUTHENTIFICATION&lt;/font&gt;&lt;/u&gt;&lt;/b&gt;" style="text;html=1;strokeColor=none;fillColor=none;align=center;verticalAlign=middle;whiteSpace=wrap;rounded=0;" vertex="1" parent="1">
          <mxGeometry x="204" y="-22" width="204" height="30" as="geometry" />
        </mxCell>
        <mxCell id="NH2dRyDyR3QYcFUQU_aB-3" value="S&#39;authentifier" style="ellipse;whiteSpace=wrap;html=1;" vertex="1" parent="1">
          <mxGeometry x="236" y="52" width="120" height="40" as="geometry" />
        </mxCell>
        <mxCell id="NH2dRyDyR3QYcFUQU_aB-4" value="RESPONSABLE&lt;br&gt;INFRASTRUCTURE" style="shape=umlActor;verticalLabelPosition=bottom;verticalAlign=top;html=1;outlineConnect=0;" vertex="1" parent="1">
          <mxGeometry x="81" width="30" height="59" as="geometry" />
        </mxCell>
        <mxCell id="NH2dRyDyR3QYcFUQU_aB-5" value="" style="endArrow=none;html=1;rounded=0;" edge="1" parent="1">
          <mxGeometry width="50" height="50" relative="1" as="geometry">
            <mxPoint x="160" y="240" as="sourcePoint" />
            <mxPoint x="440" y="240" as="targetPoint" />
          </mxGeometry>
        </mxCell>
        <mxCell id="NH2dRyDyR3QYcFUQU_aB-6" value="" style="endArrow=none;html=1;rounded=0;" edge="1" parent="1">
          <mxGeometry width="50" height="50" relative="1" as="geometry">
            <mxPoint x="158" y="-41" as="sourcePoint" />
            <mxPoint x="440" y="-40" as="targetPoint" />
          </mxGeometry>
        </mxCell>
        <mxCell id="NH2dRyDyR3QYcFUQU_aB-7" value="" style="endArrow=none;html=1;rounded=0;" edge="1" parent="1">
          <mxGeometry width="50" height="50" relative="1" as="geometry">
            <mxPoint x="440" y="-40" as="sourcePoint" />
            <mxPoint x="440" y="240" as="targetPoint" />
          </mxGeometry>
        </mxCell>
        <mxCell id="NH2dRyDyR3QYcFUQU_aB-23" value="" style="endArrow=none;html=1;rounded=0;" edge="1" parent="1">
          <mxGeometry width="50" height="50" relative="1" as="geometry">
            <mxPoint x="159" y="-40" as="sourcePoint" />
            <mxPoint x="159" y="240" as="targetPoint" />
          </mxGeometry>
        </mxCell>
        <mxCell id="NH2dRyDyR3QYcFUQU_aB-30" value="RESPONSABLE&lt;br&gt;INFRASTRUCTURE" style="shape=umlActor;verticalLabelPosition=bottom;verticalAlign=top;html=1;outlineConnect=0;" vertex="1" parent="1">
          <mxGeometry x="76" y="118" width="30" height="59" as="geometry" />
        </mxCell>
        <mxCell id="NH2dRyDyR3QYcFUQU_aB-50" value="" style="endArrow=none;html=1;rounded=0;entryX=0;entryY=0;entryDx=0;entryDy=0;" edge="1" parent="1" target="NH2dRyDyR3QYcFUQU_aB-3">
          <mxGeometry width="50" height="50" relative="1" as="geometry">
            <mxPoint x="111" y="20" as="sourcePoint" />
            <mxPoint x="240" y="97" as="targetPoint" />
          </mxGeometry>
        </mxCell>
        <mxCell id="NH2dRyDyR3QYcFUQU_aB-51" value="" style="endArrow=none;html=1;rounded=0;exitX=1;exitY=0.3333333333333333;exitDx=0;exitDy=0;exitPerimeter=0;entryX=0;entryY=1;entryDx=0;entryDy=0;" edge="1" parent="1" source="NH2dRyDyR3QYcFUQU_aB-30" target="NH2dRyDyR3QYcFUQU_aB-3">
          <mxGeometry width="50" height="50" relative="1" as="geometry">
            <mxPoint x="200" y="170" as="sourcePoint" />
            <mxPoint x="250" y="120" as="targetPoint" />
          </mxGeometry>
        </mxCell>
      </root>
    </mxGraphModel>
  </diagram>
</mxfile>
